<?xml version="1.0" encoding="UTF-8"?> <svg xmlns="http://www.w3.org/2000/svg" id="Layer_1" data-name="Layer 1" viewBox="0 0 781.06 265.14"><defs><style>.cls-1{fill:#009ed9;}.cls-2{fill:#4a4a49;}</style></defs><title>HRlab_Logo_web</title><path class="cls-1" d="M118.62,199.51V115.4H42.33v84.11H0V.34H42.33V76.27h76.29V.34H161.3v199H118.62Z"></path><path class="cls-1" d="M352.47,193.11v6H307L266,133.54H230.48v65.62H187.8V.16c28.45,0,56.55-.36,85,0,45.53,0,70.25,32.9,70.25,68.29,0,25.25-12.81,47.48-35.57,58.51ZM272.62,98.5c18,0,29.52-13.87,29.35-30.94,0-16.72-11-30.06-29.35-30.06H229.94V98.68h42.68Z"></path><circle class="cls-1" cx="729.07" cy="49.12" r="10.85"></circle><circle class="cls-1" cx="762.74" cy="34.12" r="18.32"></circle><circle class="cls-1" cx="707.04" cy="34.69" r="7.47" transform="translate(442.98 691.49) rotate(-70.91)"></circle><path class="cls-2" d="M553.43,189.55v-2.49a72.49,72.49,0,0,1-19.74,11.21,64.45,64.45,0,0,1-22.76,3.91c-18.86,0-34.86-6.58-48-19.92-13.34-13.33-19.92-29.34-19.92-48s6.58-34.86,19.92-48c13.34-13.34,29.34-19.92,48-19.92s34.67,6.58,48,19.92,19.92,29.34,19.92,48v55.3a12,12,0,0,1-3.74,8.9,12.23,12.23,0,0,1-8.89,3.73,12.74,12.74,0,0,1-12.8-12.63Zm-42.68-98A40,40,0,0,0,494,95a44.45,44.45,0,0,0-13.51,9.24,47.38,47.38,0,0,0-9.07,13.52,42.16,42.16,0,0,0,0,33.08,41.86,41.86,0,0,0,9.07,13.51A42.38,42.38,0,0,0,494,173.55a40.78,40.78,0,0,0,16.72,3.38,41.3,41.3,0,0,0,16.71-3.38A42.43,42.43,0,0,0,541,164.3a41.1,41.1,0,0,0,9.07-13.51,42.16,42.16,0,0,0,0-33.08A47.59,47.59,0,0,0,541,104.19,44.49,44.49,0,0,0,527.46,95,41.14,41.14,0,0,0,510.75,91.57Z"></path><path class="cls-2" d="M625.45,81.25a65.23,65.23,0,0,1,42.68-15.11c18.68,0,34.68,6.58,48,19.91a68.46,68.46,0,0,1,14.94,21.88,66.43,66.43,0,0,1,5,26.14c0,19-6.58,35-19.92,48-13.52,13.33-29.52,19.91-48,19.91-18.85,0-34.85-6.58-48-19.91-13.34-13.34-19.92-29.35-19.92-48V20.43a12.6,12.6,0,0,1,3.56-9.07,12.32,12.32,0,0,1,9.07-3.55,12.94,12.94,0,0,1,9.07,3.55,11.8,11.8,0,0,1,3.73,9.07V81.25ZM668,176.75a41.34,41.34,0,0,0,16.71-3.38,42.38,42.38,0,0,0,13.52-9.25,41.15,41.15,0,0,0,9.07-13.51,42.16,42.16,0,0,0,0-33.08A47.59,47.59,0,0,0,698.19,104a44.49,44.49,0,0,0-13.52-9.24,43,43,0,0,0-33.43,0A44.62,44.62,0,0,0,637.72,104a47.8,47.8,0,0,0-9.07,13.52,42.16,42.16,0,0,0,0,33.08,43.28,43.28,0,0,0,22.59,22.76A40.78,40.78,0,0,0,668,176.75Z"></path><path class="cls-2" d="M393.55,188.49c0,6.93,6.05,12.62,13.16,12.62s13.16-5.69,13.16-12.62V19.19c0-6.94-6-12.63-13.16-12.63a12.87,12.87,0,0,0-13,12.63Z"></path><path class="cls-2" d="M281.87,187.24a26.66,26.66,0,0,0-8.18-6.58,29.15,29.15,0,0,0-10-3c-3.38-.36-7.29.71-10.67,1.6a29,29,0,0,0-8.89,4.8,7.08,7.08,0,0,0,8.89,11,10.16,10.16,0,0,1,4.09-2.14c.36-.17.71,0,1.07-.17a7.38,7.38,0,0,0-.89,1.24,93.41,93.41,0,0,1-49.44,49.44,93.39,93.39,0,0,1-72.56,0,94.66,94.66,0,0,1-29.69-19.92A91.83,91.83,0,0,1,85.72,194a7,7,0,0,0-9.25-3.73,6.72,6.72,0,0,0-3.73,3.91,7.3,7.3,0,0,0,0,5.51,107.77,107.77,0,0,0,22.94,34.15,106,106,0,0,0,34.14,22.94,107.55,107.55,0,0,0,117.73-22.94,106.07,106.07,0,0,0,22.94-34.15c.18-.53.18-1.07.36-1.42a15.34,15.34,0,0,1,1.6,2.84,11.74,11.74,0,0,1,.71,5,6.7,6.7,0,0,0,6.22,7.47h.54A7.16,7.16,0,0,0,287,207,23.64,23.64,0,0,0,286,197C285.07,193.47,284,189.91,281.87,187.24Zm-1.78,23.65Z"></path></svg> 